<svg class="marks" width="683" height="333" viewBox="0 0 683 333" version="1.1" xmlns="http://www.w3.org/2000/svg" xmlns:xlink="http://www.w3.org/1999/xlink"><g transform="translate(67,57)"><g class="mark-group role-frame root"><g transform="translate(0,0)"><path class="background" d="M0,0h0v0h0Z" style="fill: none;"></path><g><g class="mark-group role-column-title column_title"><g transform="translate(255,-42)"><path class="background" d="M0,0h0v0h0Z" style="fill: none;"></path><g><g class="mark-text role-column-title-text"><text text-anchor="middle" transform="translate(0,0)" style="font: bold 11px sans-serif; fill: #000;">5 most popular offshore jurisdictions</text></g></g></g></g><g class="mark-group role-row-header row_header"><g transform="translate(-11,0)"><path class="background" d="M0,0h0v200h0Z" style="fill: none;"></path><g><g class="mark-group role-axis"><g transform="translate(0.5,0.5)"><path class="background" d="M0,0h0v0h0Z" style="pointer-events: none; fill: none;"></path><g><g class="mark-rule role-axis-tick" style="pointer-events: none;"><line transform="translate(0,200)" x2="-5" y2="0" style="fill: none; stroke: #888; stroke-width: 1; opacity: 1;"></line><line transform="translate(0,171)" x2="-5" y2="0" style="fill: none; stroke: #888; stroke-width: 1; opacity: 1;"></line><line transform="translate(0,143)" x2="-5" y2="0" style="fill: none; stroke: #888; stroke-width: 1; opacity: 1;"></line><line transform="translate(0,114)" x2="-5" y2="0" style="fill: none; stroke: #888; stroke-width: 1; opacity: 1;"></line><line transform="translate(0,86)" x2="-5" y2="0" style="fill: none; stroke: #888; stroke-width: 1; opacity: 1;"></line><line transform="translate(0,57)" x2="-5" y2="0" style="fill: none; stroke: #888; stroke-width: 1; opacity: 1;"></line><line transform="translate(0,29)" x2="-5" y2="0" style="fill: none; stroke: #888; stroke-width: 1; opacity: 1;"></line><line transform="translate(0,0)" x2="-5" y2="0" style="fill: none; stroke: #888; stroke-width: 1; opacity: 1;"></line></g><g class="mark-text role-axis-label" style="pointer-events: none;"><text text-anchor="end" transform="translate(-7,203)" style="font: 10px sans-serif; fill: #000; opacity: 1;">0</text><text text-anchor="end" transform="translate(-7,174.42857142857144)" style="font: 10px sans-serif; fill: #000; opacity: 1;">1,000</text><text text-anchor="end" transform="translate(-7,145.85714285714286)" style="font: 10px sans-serif; fill: #000; opacity: 1;">2,000</text><text text-anchor="end" transform="translate(-7,117.28571428571429)" style="font: 10px sans-serif; fill: #000; opacity: 1;">3,000</text><text text-anchor="end" transform="translate(-7,88.71428571428572)" style="font: 10px sans-serif; fill: #000; opacity: 1;">4,000</text><text text-anchor="end" transform="translate(-7,60.14285714285714)" style="font: 10px sans-serif; fill: #000; opacity: 1;">5,000</text><text text-anchor="end" transform="translate(-7,31.571428571428584)" style="font: 10px sans-serif; fill: #000; opacity: 1;">6,000</text><text text-anchor="end" transform="translate(-7,3)" style="font: 10px sans-serif; fill: #000; opacity: 1;">7,000</text></g><g class="mark-rule role-axis-domain" style="pointer-events: none;"><line transform="translate(0,200)" x2="0" y2="-200" style="fill: none; stroke: #888; stroke-width: 0.8; opacity: 1;"></line></g><g class="mark-text role-axis-title" style="pointer-events: none;"><text text-anchor="middle" transform="translate(-37.0244140625,100) rotate(-90) translate(0,-2)" style="font: bold 11px sans-serif; fill: #000; opacity: 1;">Number of entities</text></g></g></g></g></g></g></g><g class="mark-group role-column-header column_header"><g transform="translate(0,-11)"><path class="background" d="M0,0h75v0h-75Z" style="fill: none;"></path><g><g class="mark-text role-title" style="pointer-events: none;"><text text-anchor="middle" transform="translate(37.5,-12)" style="font: 10px sans-serif; fill: #000; opacity: 1;">Bermuda</text></g></g></g><g transform="translate(87,-11)"><path class="background" d="M0,0h75v0h-75Z" style="fill: none;"></path><g><g class="mark-text role-title" style="pointer-events: none;"><text text-anchor="middle" transform="translate(37.5,-12)" style="font: 10px sans-serif; fill: #000; opacity: 1;">British Virgin Islands</text></g></g></g><g transform="translate(174,-11)"><path class="background" d="M0,0h75v0h-75Z" style="fill: none;"></path><g><g class="mark-text role-title" style="pointer-events: none;"><text text-anchor="middle" transform="translate(37.5,-12)" style="font: 10px sans-serif; fill: #000; opacity: 1;">Cayman Islands</text></g></g></g><g transform="translate(261,-11)"><path class="background" d="M0,0h75v0h-75Z" style="fill: none;"></path><g><g class="mark-text role-title" style="pointer-events: none;"><text text-anchor="middle" transform="translate(37.5,-12)" style="font: 10px sans-serif; fill: #000; opacity: 1;">Isle of Man</text></g></g></g><g transform="translate(348,-11)"><path class="background" d="M0,0h75v0h-75Z" style="fill: none;"></path><g><g class="mark-text role-title" style="pointer-events: none;"><text text-anchor="middle" transform="translate(37.5,-12)" style="font: 10px sans-serif; fill: #000; opacity: 1;">Jersey</text></g></g></g><g transform="translate(435,-11)"><path class="background" d="M0,0h75v0h-75Z" style="fill: none;"></path><g><g class="mark-text role-title" style="pointer-events: none;"><text text-anchor="middle" transform="translate(37.5,-12)" style="font: 10px sans-serif; fill: #000; opacity: 1;">Mauritius</text></g></g></g></g><g class="mark-group role-column-footer column_footer"><g transform="translate(0,212)"><path class="background" d="M0,0h75v0h-75Z" style="fill: none;"></path><g><g class="mark-group role-axis"><g transform="translate(0.5,0.5)"><path class="background" d="M0,0h0v0h0Z" style="pointer-events: none; fill: none;"></path><g><g class="mark-rule role-axis-tick" style="pointer-events: none;"><line transform="translate(12,0)" x2="0" y2="5" style="fill: none; stroke: #888; stroke-width: 1; opacity: 1;"></line><line transform="translate(37,0)" x2="0" y2="5" style="fill: none; stroke: #888; stroke-width: 1; opacity: 1;"></line><line transform="translate(62,0)" x2="0" y2="5" style="fill: none; stroke: #888; stroke-width: 1; opacity: 1;"></line></g><g class="mark-text role-axis-label" style="pointer-events: none;"><text text-anchor="end" transform="translate(11.5,7) rotate(270) translate(0,3)" style="font: 10px sans-serif; fill: #000; opacity: 1;">Hong Kong</text><text text-anchor="end" transform="translate(36.5,7) rotate(270) translate(0,3)" style="font: 10px sans-serif; fill: #000; opacity: 1;">London</text><text text-anchor="end" transform="translate(61.5,7) rotate(270) translate(0,3)" style="font: 10px sans-serif; fill: #000; opacity: 1;">New York</text></g><g class="mark-rule role-axis-domain" style="pointer-events: none;"><line transform="translate(0,0)" x2="75" y2="0" style="fill: none; stroke: #888; stroke-width: 0.8; opacity: 1;"></line></g></g></g></g></g></g><g transform="translate(87,212)"><path class="background" d="M0,0h75v0h-75Z" style="fill: none;"></path><g><g class="mark-group role-axis"><g transform="translate(0.5,0.5)"><path class="background" d="M0,0h0v0h0Z" style="pointer-events: none; fill: none;"></path><g><g class="mark-rule role-axis-tick" style="pointer-events: none;"><line transform="translate(12,0)" x2="0" y2="5" style="fill: none; stroke: #888; stroke-width: 1; opacity: 1;"></line><line transform="translate(37,0)" x2="0" y2="5" style="fill: none; stroke: #888; stroke-width: 1; opacity: 1;"></line><line transform="translate(62,0)" x2="0" y2="5" style="fill: none; stroke: #888; stroke-width: 1; opacity: 1;"></line></g><g class="mark-text role-axis-label" style="pointer-events: none;"><text text-anchor="end" transform="translate(11.5,7) rotate(270) translate(0,3)" style="font: 10px sans-serif; fill: #000; opacity: 1;">Hong Kong</text><text text-anchor="end" transform="translate(36.5,7) rotate(270) translate(0,3)" style="font: 10px sans-serif; fill: #000; opacity: 1;">London</text><text text-anchor="end" transform="translate(61.5,7) rotate(270) translate(0,3)" style="font: 10px sans-serif; fill: #000; opacity: 1;">New York</text></g><g class="mark-rule role-axis-domain" style="pointer-events: none;"><line transform="translate(0,0)" x2="75" y2="0" style="fill: none; stroke: #888; stroke-width: 0.8; opacity: 1;"></line></g></g></g></g></g></g><g transform="translate(174,212)"><path class="background" d="M0,0h75v0h-75Z" style="fill: none;"></path><g><g class="mark-group role-axis"><g transform="translate(0.5,0.5)"><path class="background" d="M0,0h0v0h0Z" style="pointer-events: none; fill: none;"></path><g><g class="mark-rule role-axis-tick" style="pointer-events: none;"><line transform="translate(12,0)" x2="0" y2="5" style="fill: none; stroke: #888; stroke-width: 1; opacity: 1;"></line><line transform="translate(37,0)" x2="0" y2="5" style="fill: none; stroke: #888; stroke-width: 1; opacity: 1;"></line><line transform="translate(62,0)" x2="0" y2="5" style="fill: none; stroke: #888; stroke-width: 1; opacity: 1;"></line></g><g class="mark-text role-axis-label" style="pointer-events: none;"><text text-anchor="end" transform="translate(11.5,7) rotate(270) translate(0,3)" style="font: 10px sans-serif; fill: #000; opacity: 1;">Hong Kong</text><text text-anchor="end" transform="translate(36.5,7) rotate(270) translate(0,3)" style="font: 10px sans-serif; fill: #000; opacity: 1;">London</text><text text-anchor="end" transform="translate(61.5,7) rotate(270) translate(0,3)" style="font: 10px sans-serif; fill: #000; opacity: 1;">New York</text></g><g class="mark-rule role-axis-domain" style="pointer-events: none;"><line transform="translate(0,0)" x2="75" y2="0" style="fill: none; stroke: #888; stroke-width: 0.8; opacity: 1;"></line></g></g></g></g></g></g><g transform="translate(261,212)"><path class="background" d="M0,0h75v0h-75Z" style="fill: none;"></path><g><g class="mark-group role-axis"><g transform="translate(0.5,0.5)"><path class="background" d="M0,0h0v0h0Z" style="pointer-events: none; fill: none;"></path><g><g class="mark-rule role-axis-tick" style="pointer-events: none;"><line transform="translate(12,0)" x2="0" y2="5" style="fill: none; stroke: #888; stroke-width: 1; opacity: 1;"></line><line transform="translate(37,0)" x2="0" y2="5" style="fill: none; stroke: #888; stroke-width: 1; opacity: 1;"></line><line transform="translate(62,0)" x2="0" y2="5" style="fill: none; stroke: #888; stroke-width: 1; opacity: 1;"></line></g><g class="mark-text role-axis-label" style="pointer-events: none;"><text text-anchor="end" transform="translate(11.5,7) rotate(270) translate(0,3)" style="font: 10px sans-serif; fill: #000; opacity: 1;">Hong Kong</text><text text-anchor="end" transform="translate(36.5,7) rotate(270) translate(0,3)" style="font: 10px sans-serif; fill: #000; opacity: 1;">London</text><text text-anchor="end" transform="translate(61.5,7) rotate(270) translate(0,3)" style="font: 10px sans-serif; fill: #000; opacity: 1;">New York</text></g><g class="mark-rule role-axis-domain" style="pointer-events: none;"><line transform="translate(0,0)" x2="75" y2="0" style="fill: none; stroke: #888; stroke-width: 0.8; opacity: 1;"></line></g></g></g></g></g></g><g transform="translate(348,212)"><path class="background" d="M0,0h75v0h-75Z" style="fill: none;"></path><g><g class="mark-group role-axis"><g transform="translate(0.5,0.5)"><path class="background" d="M0,0h0v0h0Z" style="pointer-events: none; fill: none;"></path><g><g class="mark-rule role-axis-tick" style="pointer-events: none;"><line transform="translate(12,0)" x2="0" y2="5" style="fill: none; stroke: #888; stroke-width: 1; opacity: 1;"></line><line transform="translate(37,0)" x2="0" y2="5" style="fill: none; stroke: #888; stroke-width: 1; opacity: 1;"></line><line transform="translate(62,0)" x2="0" y2="5" style="fill: none; stroke: #888; stroke-width: 1; opacity: 1;"></line></g><g class="mark-text role-axis-label" style="pointer-events: none;"><text text-anchor="end" transform="translate(11.5,7) rotate(270) translate(0,3)" style="font: 10px sans-serif; fill: #000; opacity: 1;">Hong Kong</text><text text-anchor="end" transform="translate(36.5,7) rotate(270) translate(0,3)" style="font: 10px sans-serif; fill: #000; opacity: 1;">London</text><text text-anchor="end" transform="translate(61.5,7) rotate(270) translate(0,3)" style="font: 10px sans-serif; fill: #000; opacity: 1;">New York</text></g><g class="mark-rule role-axis-domain" style="pointer-events: none;"><line transform="translate(0,0)" x2="75" y2="0" style="fill: none; stroke: #888; stroke-width: 0.8; opacity: 1;"></line></g></g></g></g></g></g><g transform="translate(435,212)"><path class="background" d="M0,0h75v0h-75Z" style="fill: none;"></path><g><g class="mark-group role-axis"><g transform="translate(0.5,0.5)"><path class="background" d="M0,0h0v0h0Z" style="pointer-events: none; fill: none;"></path><g><g class="mark-rule role-axis-tick" style="pointer-events: none;"><line transform="translate(12,0)" x2="0" y2="5" style="fill: none; stroke: #888; stroke-width: 1; opacity: 1;"></line><line transform="translate(37,0)" x2="0" y2="5" style="fill: none; stroke: #888; stroke-width: 1; opacity: 1;"></line><line transform="translate(62,0)" x2="0" y2="5" style="fill: none; stroke: #888; stroke-width: 1; opacity: 1;"></line></g><g class="mark-text role-axis-label" style="pointer-events: none;"><text text-anchor="end" transform="translate(11.5,7) rotate(270) translate(0,3)" style="font: 10px sans-serif; fill: #000; opacity: 1;">Hong Kong</text><text text-anchor="end" transform="translate(36.5,7) rotate(270) translate(0,3)" style="font: 10px sans-serif; fill: #000; opacity: 1;">London</text><text text-anchor="end" transform="translate(61.5,7) rotate(270) translate(0,3)" style="font: 10px sans-serif; fill: #000; opacity: 1;">New York</text></g><g class="mark-rule role-axis-domain" style="pointer-events: none;"><line transform="translate(0,0)" x2="75" y2="0" style="fill: none; stroke: #888; stroke-width: 0.8; opacity: 1;"></line></g></g></g></g></g></g></g><g class="mark-group role-scope cell"><g transform="translate(0,0)"><path class="background" d="M0.5,0.5h75v200h-75Z" style="fill: none; stroke: none;"></path><g><g class="mark-rect role-mark child_marks"><path d="M26.25,72.45714285714287h22.5v127.54285714285713h-22.5Z" style="fill: #d95f02; stroke: none;"></path><path d="M51.25,33.599999999999994h22.5v166.4h-22.5Z" style="fill: #7570b3; stroke: none;"></path><path d="M1.25,9.97142857142856h22.5v190.02857142857144h-22.5Z" style="fill: #1b9e77; stroke: none;"></path></g></g></g><g transform="translate(87,0)"><path class="background" d="M0.5,0.5h75v200h-75Z" style="fill: none; stroke: none;"></path><g><g class="mark-rect role-mark child_marks"><path d="M26.25,194.02857142857144h22.5v5.971428571428561h-22.5Z" style="fill: #d95f02; stroke: none;"></path><path d="M51.25,197.42857142857142h22.5v2.5714285714285836h-22.5Z" style="fill: #7570b3; stroke: none;"></path><path d="M1.25,189.45714285714286h22.5v10.542857142857144h-22.5Z" style="fill: #1b9e77; stroke: none;"></path></g></g></g><g transform="translate(174,0)"><path class="background" d="M0.5,0.5h75v200h-75Z" style="fill: none; stroke: none;"></path><g><g class="mark-rect role-mark child_marks"><path d="M26.25,179.42857142857144h22.5v20.571428571428555h-22.5Z" style="fill: #d95f02; stroke: none;"></path><path d="M51.25,174.0857142857143h22.5v25.91428571428571h-22.5Z" style="fill: #7570b3; stroke: none;"></path><path d="M1.25,174.0857142857143h22.5v25.91428571428571h-22.5Z" style="fill: #1b9e77; stroke: none;"></path></g></g></g><g transform="translate(261,0)"><path class="background" d="M0.5,0.5h75v200h-75Z" style="fill: none; stroke: none;"></path><g><g class="mark-rect role-mark child_marks"><path d="M26.25,181.68571428571428h22.5v18.314285714285717h-22.5Z" style="fill: #d95f02; stroke: none;"></path><path d="M51.25,197.34285714285716h22.5v2.657142857142844h-22.5Z" style="fill: #7570b3; stroke: none;"></path><path d="M1.25,193.42857142857142h22.5v6.571428571428584h-22.5Z" style="fill: #1b9e77; stroke: none;"></path></g></g></g><g transform="translate(348,0)"><path class="background" d="M0.5,0.5h75v200h-75Z" style="fill: none; stroke: none;"></path><g><g class="mark-rect role-mark child_marks"><path d="M26.25,178.85714285714286h22.5v21.14285714285714h-22.5Z" style="fill: #d95f02; stroke: none;"></path></g></g></g><g transform="translate(435,0)"><path class="background" d="M0.5,0.5h75v200h-75Z" style="fill: none; stroke: none;"></path><g><g class="mark-rect role-mark child_marks"><path d="M51.25,194.0857142857143h22.5v5.914285714285711h-22.5Z" style="fill: #7570b3; stroke: none;"></path><path d="M1.25,197.17142857142858h22.5v2.828571428571422h-22.5Z" style="fill: #1b9e77; stroke: none;"></path></g></g></g></g><g class="mark-group role-legend"><g transform="translate(529,0)"><path class="background" d="M0,0h82v61h-82Z" style="pointer-events: none; fill: none;"></path><g><g class="mark-group role-legend-entry"><g transform="translate(0,16)"><path class="background" d="M0,0h0v0h0Z" style="pointer-events: none; fill: none;"></path><g><g class="mark-group role-scope"><g transform="translate(0,0)"><path class="background" d="M0,0h67.0390625v12.5h-67.0390625Z" style="pointer-events: none; fill: none; opacity: 1;"></path><g><g class="mark-symbol role-legend-symbol" style="pointer-events: none;"><path transform="translate(6,6)" d="M-5,-5h10v10h-10Z" style="fill: #1b9e77; stroke: none; stroke-width: 1.5; opacity: 1;"></path></g><g class="mark-text role-legend-label" style="pointer-events: none;"><text text-anchor="start" transform="translate(16,9)" style="font: 10px sans-serif; fill: #000; opacity: 1;">Hong Kong</text></g></g></g><g transform="translate(0,16)"><path class="background" d="M0,0h67.0390625v12.5h-67.0390625Z" style="pointer-events: none; fill: none; opacity: 1;"></path><g><g class="mark-symbol role-legend-symbol" style="pointer-events: none;"><path transform="translate(6,6)" d="M-5,-5h10v10h-10Z" style="fill: #d95f02; stroke: none; stroke-width: 1.5; opacity: 1;"></path></g><g class="mark-text role-legend-label" style="pointer-events: none;"><text text-anchor="start" transform="translate(16,9)" style="font: 10px sans-serif; fill: #000; opacity: 1;">London</text></g></g></g><g transform="translate(0,32)"><path class="background" d="M0,0h67.0390625v12.5h-67.0390625Z" style="pointer-events: none; fill: none; opacity: 1;"></path><g><g class="mark-symbol role-legend-symbol" style="pointer-events: none;"><path transform="translate(6,6)" d="M-5,-5h10v10h-10Z" style="fill: #7570b3; stroke: none; stroke-width: 1.5; opacity: 1;"></path></g><g class="mark-text role-legend-label" style="pointer-events: none;"><text text-anchor="start" transform="translate(16,9)" style="font: 10px sans-serif; fill: #000; opacity: 1;">New York</text></g></g></g></g></g></g></g><g class="mark-text role-legend-title" style="pointer-events: none;"><text text-anchor="start" transform="translate(0,9)" style="font: bold 11px sans-serif; fill: #000; opacity: 1;">Officer address</text></g></g></g></g></g></g></g></g></svg>